<svg id="visual" viewBox="0 0 900 600" width="900" height="600" xmlns="http://www.w3.org/2000/svg" xmlns:xlink="http://www.w3.org/1999/xlink" version="1.1"><g stroke-width="1" stroke-linejoin="bevel"><path d="M461 298L413 283L375 371Z" fill="#2f2f68" stroke="#2f2f68"></path><path d="M375 371L467 374L461 298Z" fill="#0d254b" stroke="#0d254b"></path><path d="M413 283L329 315L375 371Z" fill="#5b337f" stroke="#5b337f"></path><path d="M467 374L571 333L461 298Z" fill="#8c2f8d" stroke="#8c2f8d"></path><path d="M424 517L493 475L467 374Z" fill="#00101c" stroke="#00101c"></path><path d="M467 374L493 475L571 333Z" fill="#03182b" stroke="#03182b"></path><path d="M521 188L389 170L413 283Z" fill="#1c2b5a" stroke="#1c2b5a"></path><path d="M413 283L389 170L329 315Z" fill="#733288" stroke="#733288"></path><path d="M521 188L413 283L461 298Z" fill="#1c2b5a" stroke="#1c2b5a"></path><path d="M329 315L263 406L375 371Z" fill="#1c2b5a" stroke="#1c2b5a"></path><path d="M375 371L424 517L467 374Z" fill="#041f3b" stroke="#041f3b"></path><path d="M179 364L263 406L329 315Z" fill="#5b337f" stroke="#5b337f"></path><path d="M284 490L424 517L375 371Z" fill="#03182b" stroke="#03182b"></path><path d="M571 333L521 188L461 298Z" fill="#0d254b" stroke="#0d254b"></path><path d="M521 188L409 138L389 170Z" fill="#5b337f" stroke="#5b337f"></path><path d="M571 333L564 193L521 188Z" fill="#8c2f8d" stroke="#8c2f8d"></path><path d="M521 188L538 117L409 138Z" fill="#8c2f8d" stroke="#8c2f8d"></path><path d="M263 406L284 490L375 371Z" fill="#733288" stroke="#733288"></path><path d="M291 108L285 183L389 170Z" fill="#1c2b5a" stroke="#1c2b5a"></path><path d="M389 170L285 183L329 315Z" fill="#a62990" stroke="#a62990"></path><path d="M493 475L625 382L571 333Z" fill="#0d254b" stroke="#0d254b"></path><path d="M571 333L665 277L564 193Z" fill="#00101c" stroke="#00101c"></path><path d="M177 266L179 364L329 315Z" fill="#733288" stroke="#733288"></path><path d="M263 406L188 498L284 490Z" fill="#041f3b" stroke="#041f3b"></path><path d="M564 193L538 117L521 188Z" fill="#733288" stroke="#733288"></path><path d="M625 382L665 277L571 333Z" fill="#041f3b" stroke="#041f3b"></path><path d="M564 193L660 115L538 117Z" fill="#a62990" stroke="#a62990"></path><path d="M285 183L177 266L329 315Z" fill="#8c2f8d" stroke="#8c2f8d"></path><path d="M322 600L430 600L424 517Z" fill="#0d254b" stroke="#0d254b"></path><path d="M424 517L489 600L493 475Z" fill="#041f3b" stroke="#041f3b"></path><path d="M620 536L679 403L625 382Z" fill="#443275" stroke="#443275"></path><path d="M620 536L625 382L493 475Z" fill="#733288" stroke="#733288"></path><path d="M625 382L679 403L665 277Z" fill="#041f3b" stroke="#041f3b"></path><path d="M409 138L291 108L389 170Z" fill="#2f2f68" stroke="#2f2f68"></path><path d="M285 183L160 197L177 266Z" fill="#8c2f8d" stroke="#8c2f8d"></path><path d="M364 0L291 108L409 138Z" fill="#5b337f" stroke="#5b337f"></path><path d="M430 600L489 600L424 517Z" fill="#0d254b" stroke="#0d254b"></path><path d="M489 600L620 536L493 475Z" fill="#733288" stroke="#733288"></path><path d="M228 600L322 600L284 490Z" fill="#1c2b5a" stroke="#1c2b5a"></path><path d="M284 490L322 600L424 517Z" fill="#1c2b5a" stroke="#1c2b5a"></path><path d="M179 364L188 498L263 406Z" fill="#443275" stroke="#443275"></path><path d="M181 139L160 197L285 183Z" fill="#03182b" stroke="#03182b"></path><path d="M177 266L121 328L179 364Z" fill="#041f3b" stroke="#041f3b"></path><path d="M179 364L76 393L188 498Z" fill="#443275" stroke="#443275"></path><path d="M87 215L121 328L177 266Z" fill="#443275" stroke="#443275"></path><path d="M291 108L181 139L285 183Z" fill="#a62990" stroke="#a62990"></path><path d="M489 600L600 600L620 536Z" fill="#00101c" stroke="#00101c"></path><path d="M620 536L722 497L679 403Z" fill="#443275" stroke="#443275"></path><path d="M665 277L660 115L564 193Z" fill="#03182b" stroke="#03182b"></path><path d="M809 307L725 234L665 277Z" fill="#443275" stroke="#443275"></path><path d="M188 498L228 600L284 490Z" fill="#733288" stroke="#733288"></path><path d="M132 600L228 600L188 498Z" fill="#03182b" stroke="#03182b"></path><path d="M725 234L660 115L665 277Z" fill="#a62990" stroke="#a62990"></path><path d="M522 0L364 0L409 138Z" fill="#2f2f68" stroke="#2f2f68"></path><path d="M660 115L626 71L538 117Z" fill="#0d254b" stroke="#0d254b"></path><path d="M716 600L722 497L620 536Z" fill="#1c2b5a" stroke="#1c2b5a"></path><path d="M679 403L809 307L665 277Z" fill="#443275" stroke="#443275"></path><path d="M522 0L409 138L538 117Z" fill="#03182b" stroke="#03182b"></path><path d="M291 108L237 0L181 139Z" fill="#0d254b" stroke="#0d254b"></path><path d="M0 335L76 393L121 328Z" fill="#03182b" stroke="#03182b"></path><path d="M121 328L76 393L179 364Z" fill="#03182b" stroke="#03182b"></path><path d="M87 215L177 266L160 197Z" fill="#041f3b" stroke="#041f3b"></path><path d="M599 0L522 0L538 117Z" fill="#00101c" stroke="#00101c"></path><path d="M181 139L87 215L160 197Z" fill="#5b337f" stroke="#5b337f"></path><path d="M364 0L291 0L291 108Z" fill="#0d254b" stroke="#0d254b"></path><path d="M181 139L123 67L87 215Z" fill="#041f3b" stroke="#041f3b"></path><path d="M722 497L778 433L679 403Z" fill="#0d254b" stroke="#0d254b"></path><path d="M720 0L599 0L626 71Z" fill="#03182b" stroke="#03182b"></path><path d="M725 234L776 224L660 115Z" fill="#733288" stroke="#733288"></path><path d="M809 307L776 224L725 234Z" fill="#0d254b" stroke="#0d254b"></path><path d="M720 0L626 71L660 115Z" fill="#733288" stroke="#733288"></path><path d="M626 71L599 0L538 117Z" fill="#443275" stroke="#443275"></path><path d="M291 0L237 0L291 108Z" fill="#1c2b5a" stroke="#1c2b5a"></path><path d="M778 433L809 307L679 403Z" fill="#443275" stroke="#443275"></path><path d="M62 499L132 600L188 498Z" fill="#2f2f68" stroke="#2f2f68"></path><path d="M600 600L716 600L620 536Z" fill="#00101c" stroke="#00101c"></path><path d="M722 497L795 495L778 433Z" fill="#733288" stroke="#733288"></path><path d="M0 470L62 499L76 393Z" fill="#1c2b5a" stroke="#1c2b5a"></path><path d="M76 393L62 499L188 498Z" fill="#8c2f8d" stroke="#8c2f8d"></path><path d="M237 0L123 67L181 139Z" fill="#00101c" stroke="#00101c"></path><path d="M784 600L795 495L722 497Z" fill="#0d254b" stroke="#0d254b"></path><path d="M778 433L900 375L809 307Z" fill="#443275" stroke="#443275"></path><path d="M0 185L0 335L87 215Z" fill="#8c2f8d" stroke="#8c2f8d"></path><path d="M87 215L0 335L121 328Z" fill="#1c2b5a" stroke="#1c2b5a"></path><path d="M0 335L0 396L76 393Z" fill="#03182b" stroke="#03182b"></path><path d="M0 396L0 470L76 393Z" fill="#a62990" stroke="#a62990"></path><path d="M62 499L0 600L132 600Z" fill="#00101c" stroke="#00101c"></path><path d="M716 600L784 600L722 497Z" fill="#733288" stroke="#733288"></path><path d="M123 67L0 185L87 215Z" fill="#0d254b" stroke="#0d254b"></path><path d="M800 83L660 115L776 224Z" fill="#00101c" stroke="#00101c"></path><path d="M800 83L720 0L660 115Z" fill="#8c2f8d" stroke="#8c2f8d"></path><path d="M900 168L800 83L776 224Z" fill="#03182b" stroke="#03182b"></path><path d="M237 0L83 0L123 67Z" fill="#0d254b" stroke="#0d254b"></path><path d="M123 67L0 71L0 185Z" fill="#1c2b5a" stroke="#1c2b5a"></path><path d="M900 502L900 375L778 433Z" fill="#8c2f8d" stroke="#8c2f8d"></path><path d="M809 307L900 287L776 224Z" fill="#8c2f8d" stroke="#8c2f8d"></path><path d="M900 502L778 433L795 495Z" fill="#5b337f" stroke="#5b337f"></path><path d="M900 375L900 287L809 307Z" fill="#03182b" stroke="#03182b"></path><path d="M0 470L0 600L62 499Z" fill="#733288" stroke="#733288"></path><path d="M83 0L0 71L123 67Z" fill="#5b337f" stroke="#5b337f"></path><path d="M900 600L900 502L795 495Z" fill="#2f2f68" stroke="#2f2f68"></path><path d="M900 287L900 168L776 224Z" fill="#0d254b" stroke="#0d254b"></path><path d="M800 83L834 0L720 0Z" fill="#03182b" stroke="#03182b"></path><path d="M900 168L900 130L800 83Z" fill="#8c2f8d" stroke="#8c2f8d"></path><path d="M900 0L834 0L800 83Z" fill="#5b337f" stroke="#5b337f"></path><path d="M83 0L0 0L0 71Z" fill="#443275" stroke="#443275"></path><path d="M784 600L900 600L795 495Z" fill="#1c2b5a" stroke="#1c2b5a"></path><path d="M900 130L900 0L800 83Z" fill="#1c2b5a" stroke="#1c2b5a"></path></g></svg>